<svg xmlns="http://www.w3.org/2000/svg" xml:space="preserve" width="457.47" height="565.008" viewBox="0 0 457.47001 565.008"><path d="M0 0c48.24.004 96.483 0 144.728 0 .003-37.167.011-74.336.011-111.506.265-16.815-5.373-33.664-15.726-46.912-9.284-12.035-22.401-21.131-37.04-25.302-17.055-4.958-35.985-3.191-51.766 4.985-18.882 9.556-33.04 27.741-37.978 48.287a72.677 72.677 0 0 0-2.206 16.956C-.02-75.661.059-37.831 0 0" style="fill:#fff;fill-opacity:1;fill-rule:nonzero;stroke:none" transform="matrix(3.16046 0 0 -3.02987 0 .005)"/><path d="M0 0c.063-35.818.008-71.637.02-107.455-.206-16.605 5.633-33.236 16.252-46.014 4.262-5.207 9.315-9.757 14.893-13.512 13.825-9.323 31.232-13.229 47.698-10.485 15.383 2.368 29.73 10.445 39.986 22.112 11.638 13.01 18.058 30.472 17.869 47.912-.064 35.81.079 71.62-.016 107.426C91.135-.008 45.567-.036 0 0" style="fill:#fff;fill-opacity:1;fill-rule:nonzero;stroke:none" transform="matrix(3.16046 0 0 -3.02987 12.719 12.33)"/><path d="M0 0c38.997-.107 77.997-.016 116.998-.047 3.807.019 7.614-.04 11.421.035.024-32.201-.004-64.398.036-96.598-.04-5.527.193-11.086-.644-16.569-1.867-13.857-8.219-27.109-17.969-37.143-9.745-10.33-23.072-17.237-37.158-19.119-8.931-1.209-18.127-.502-26.745 2.151-14.442 4.392-27.089 14.177-35.21 26.872C3.744-129.819.126-117.152-.056-104.49-.079-75.369-.06-46.244-.067-17.119-.032-11.41-.143-5.705 0 0" style="fill:#fff;fill-opacity:1;fill-rule:nonzero;stroke:none" transform="matrix(3.16046 0 0 -3.02987 25.84 24.824)"/><g style="fill:#1f419a;fill-opacity:1"><path d="M0 0c-.143-5.705-.032-11.41-.067-17.119.007-29.125-.012-58.25.011-87.371.182-12.662 3.8-25.329 10.785-35.928 8.121-12.695 20.768-22.48 35.21-26.872 8.618-2.653 17.814-3.36 26.745-2.151 14.086 1.882 27.413 8.789 37.158 19.119 9.75 10.034 16.102 23.286 17.969 37.143.837 5.483.604 11.042.644 16.569-.04 32.2-.012 64.397-.036 96.598-3.807-.075-7.614-.016-11.421-.035C77.997-.016 38.997-.107 0 0m-4.151 4.124c45.567-.036 91.134-.009 136.702-.017.095-35.806-.048-71.616.015-107.426.19-17.439-6.23-34.901-17.869-47.912-10.256-11.667-24.602-19.743-39.985-22.111-16.466-2.744-33.873 1.162-47.698 10.484-5.578 3.756-10.631 8.306-14.893 13.513-10.619 12.777-16.458 29.409-16.252 46.013-.013 35.819.043 71.637-.02 107.456" style="fill:#1f419a;fill-opacity:1;fill-rule:nonzero;stroke:none" transform="matrix(3.16046 0 0 -3.02987 25.84 24.824)"/></g><g style="fill:#1f419a;fill-opacity:1"><path d="M0 0c.932.13 1.854-.243 2.626-.736 1.048-.77 1.61-2.128 1.526-3.414-.169-1.128-.727-2.299-1.769-2.86-1.046-.691-2.462-.834-3.597-.274-1.758.745-2.763 2.956-2.049 4.752C-2.773-1.159-1.46-.121 0 0m6.698 3.856c1.866.547 3.958-.795 4.256-2.694.354-1.446-.379-3.036-1.678-3.741-1.698-1.048-4.212-.265-4.962 1.604-.903 1.911.319 4.415 2.384 4.831m-10.96 2.731c1.793.128 3.618-1.344 3.658-3.195.189-1.8-1.353-3.607-3.187-3.584C-4.854-.377-5.96.133-6.599.98c-1.314 1.402-.985 3.956.637 4.99.52.314 1.094.544 1.7.617m6.197 3.324c1.41.376 3.025-.3 3.685-1.604.775-1.361.436-3.252-.811-4.219-1.317-1.043-3.492-.955-4.574.38C-.781 5.46-.793 7.12-.212 8.334c.468.773 1.247 1.402 2.147 1.577m9.018.127c1.443.192 2.938-.839 3.291-2.249.538-1.672-.806-3.57-2.507-3.792-1.679-.313-3.518 1.145-3.411 2.893-.208 1.538 1.122 3.008 2.627 3.148m-19.966 1.175c1.631.311 3.352-1.106 3.283-2.781.067-1.517-1.326-2.878-2.832-2.834-1.296.023-2.516.988-2.759 2.272-.339 1.499.786 3.135 2.308 3.343m-19.713.142c.994.485 1.556-1.093.671-1.476-.982-.509-1.592 1.191-.671 1.476m2.322 2.051c1.06.461 1.965-.997 1.299-1.814-.469-.705-1.657-.575-2.003.184-.362.629.047 1.443.704 1.63m12.365.125c1.406.358 2.898-.966 2.771-2.401-.012-1.181-1.114-2.266-2.314-2.188-.824-.075-1.697.411-2.057 1.163-.788 1.295.082 3.224 1.6 3.426m-8.64.395c1.145.213 2.167-1.178 1.551-2.193-.47-1.037-2.091-1.09-2.628-.086-.594.872.056 2.153 1.077 2.279m19.459.119c1.259.27 2.726-.365 3.149-1.636.63-1.184-.039-2.599-1.013-3.334-1.173-.934-3.155-.559-3.878.763-1.137 1.477-.107 3.949 1.742 4.207m-15.211.131c1.245.14 2.33-1.225 1.9-2.398-.317-1.581-2.941-1.79-3.49-.262-.562 1.16.307 2.605 1.59 2.66m25.133.886c1.18.181 2.386-.574 2.865-1.646.777-1.509-.236-3.646-1.945-3.9-1.644-.475-3.504.951-3.416 2.654-.173 1.461 1.069 2.783 2.496 2.892m-31.05.414c.94.419 1.445-.829.941-1.465-.376-.243-.968-.309-1.293.04-.452.382-.232 1.296.352 1.425m15.979 1.005c1.06.28 2.234-.364 2.627-1.373.555-1.242-.319-2.819-1.609-3.118-1.256-.339-2.674.606-2.817 1.906-.233 1.155.651 2.394 1.799 2.585m-13.972-.83c-.034.935 1.221 1.542 1.939.899.922-.485.405-1.726-.095-2.335-.805.022-2.05.341-1.844 1.436m5.211 1.471c1.01.25 2.05-.907 1.501-1.871-.369-1.053-2.099-1.066-2.464 0-.468.773.159 1.725.963 1.871m4.12.273c1.156.367 2.447-.653 2.248-1.879-.033-1.328-1.781-2.164-2.812-1.281-1.276.693-.82 2.905.564 3.16m14.17 1.03c1.547.419 3.267-.919 3.158-2.527.179-1.509-1.348-2.82-2.809-2.656-1.343.107-2.405 1.336-2.466 2.66.1 1.166.901 2.33 2.117 2.523m-20.606.004c.446.18 1.081-.014 1.192-.516.436-.826-.624-1.649-1.329-1.189-.704.316-.581 1.481.137 1.705m3.98 1.421c.733.084 1.52-.6 1.385-1.38.065-.717-.752-1.291-1.43-1.15-.663.058-1.152.769-1.037 1.422.003.576.56.997 1.082 1.108m11.603.376c1.329.316 2.658-.931 2.536-2.266.004-1.482-1.754-2.606-3.106-1.93-1.206.497-1.714 2.189-.903 3.223.295.527.883.879 1.473.973m-8.5.256c1.05.42 2.191-.905 1.628-1.881-.3-.921-1.621-1.145-2.241-.422-.824.652-.376 2.106.613 2.303m3.735.253c1.001.351 1.997-.438 2.257-1.377.166-1.02-.693-2.2-1.797-2.038-1.309-.166-2.152 1.503-1.548 2.576.26.377.623.742 1.088.839" style="fill:#1f419a;fill-opacity:1;fill-rule:nonzero;stroke:none" transform="matrix(3.51345 0 0 -3.51345 257.38 261.962)"/></g><path d="M-90.772-5.542c4.524-.002 9.048-.002 13.573 0 .008-13.576-.005-27.15.005-40.725 5.431-.019 10.862.008 16.293-.01-.008-4.07-.01-8.14 0-12.214-7.355.076-14.714-.164-22.064.06-4.171-.2-7.591 3.782-7.68 7.78-.33 15.027-.022 30.073-.127 45.11m-40.046-.009c10.743.008 21.495.008 32.243 0-.01-4.182-.01-8.366 0-12.553-6.337.002-12.672-.006-19.004 0-.016-2.601-.013-5.2-.003-7.805 5.77-.003 11.539.005 17.31-.003-.01-4.071-.005-8.14 0-12.214-5.774-.008-11.545 0-17.313-.008.01-6.811-.016-13.626 0-20.443-3.028.314-6.411-.571-9.162 1.102-2.843 1.375-4.221 4.759-4.055 7.792-.085 14.709.015 29.423-.016 44.132m-40.733.006c10.635.002 21.273 0 31.908 0a3284.55 3284.55 0 0 1 0-12.557c-6.222-.002-12.443-.002-18.662-.002a431.13 431.13 0 0 1-.003-7.805c5.766-.003 11.537.005 17.305-.003-.008-4.071-.005-8.14 0-12.214-5.768-.007-11.54 0-17.305-.007-.01-2.71-.021-5.423-.003-8.138 6.224 0 12.446-.005 18.67-.007-.013-4.07-.013-8.14-.003-12.217-7.927.063-15.853-.116-23.774.03-3.186-.296-6.327 1.77-7.473 4.716-.933 2.008-.527 4.322-.693 6.45.047 13.92.024 27.838.031 41.754m41.717 18.709c1.059.693 2.708.095 2.959-1.183.659-1.32-.554-2.435-1.66-2.764-.933.05-1.792.469-2.664.758.455.941.197 2.63 1.365 3.189m-6.965 4.256c2.661 1.212 5.531-2.448 3.615-4.646-.93-1.895-4.192-1.908-5.114.005-1.39 1.505-.288 4.087 1.499 4.64m-7.79.678c2.156 1.03 4.24-2.11 2.662-3.71-1.107-1.384-3.67-.88-4.04.896-.58 1.275.459 2.231 1.379 2.814m28.846 6.074c4.69 1.267 9.945-2.799 9.663-7.666.421-4.854-4.667-9.001-9.357-8.013-2.483.648-4.928 2.118-5.869 4.643-2.147 4.343.783 10.224 5.563 11.036m-34.962.36c1.791.673 3.183-.769 4.643-1.472-.361-1.36-.198-3.157-1.378-4.185-1.605-1.37-4.475-.738-5.226 1.26-.809 1.718.187 3.886 1.96 4.398m-6.48 1.388c1.727.285 3.43-1.702 2.702-3.351-.467-1.755-3.326-2.367-4.272-.717-1.188 1.441-.347 3.91 1.57 4.068m14.987.259c2.521 1.096 5.72-1.126 5.299-3.906.242-3.012-3.821-4.703-6.092-2.998-2.538 1.591-2.111 5.979.793 6.904m44.103.366c2.928.656 6.63-.364 8.042-3.207 2.696-3.64.688-9.368-3.496-10.833-4.309-2.129-10.356 1.447-10.111 6.393-.596 3.518 2.245 6.89 5.565 7.647m15.276 6.775c3.143.777 6.796-.84 7.966-3.919 1.436-2.82.41-6.498-2.14-8.33-3.66-3.072-10.195-.755-10.925 4.075-.957 3.53 1.576 7.486 5.099 8.174m-81.826.745c2.677.527 5.067-3.101 3.196-5.254-1.663-2.846-6.809-1.028-6.053 2.316.01 1.526 1.492 2.606 2.857 2.938m8.163.288c2.585.637 5.062-2.264 4.056-4.707-.646-2.616-4.899-3.283-6.227-.92-1.863 1.845-.235 5.34 2.171 5.627m8.838 2.374c1.96.51 4.427.274 5.571-1.597 2.298-2.543.762-7.226-2.677-7.726-2.477-.833-5.484.943-5.945 3.512-.685 2.3.783 5.068 3.051 5.81m-22.772 4.457c2.593.477 5.086-2.52 3.971-4.967-.833-2.733-5.075-3.173-6.461-.694-1.655 2.077-.06 5.397 2.49 5.66m100.492.256c4.195.83 7.952-4.168 5.968-7.947-.893-2.656-4.121-4.396-6.783-3.4-3.109.717-5.238 4.433-4.076 7.447.899 1.932 2.606 3.848 4.89 3.9m-54.99 1.418c2.352.33 4.755-.54 6.655-1.895 3.898-2.796 4.606-8.875 1.834-12.688-2.954-4.308-9.881-5.286-13.634-1.486-3.836 3.023-4.155 9.36-.867 12.907 1.452 1.834 3.703 2.94 6.011 3.162m20.707 2.34c4.284.5 8.68-2.646 9.37-6.951 1.447-4.978-3.01-10.617-8.16-10.504-4.705-.495-9.263 3.742-9.118 8.475-.504 4.46 3.489 8.772 7.908 8.98m-57.722.4c2.2.261 4.756-1.135 5.18-3.423.783-2.426-.737-5.557-3.404-5.823-3.128-1.015-6.564 2.13-5.74 5.336.304 2.084 1.945 3.534 3.964 3.91m100.805 3.974c3.526.472 5.906-3.72 4.353-6.643-1.072-2.69-4.988-3.452-7.093-1.534-2.345 1.695-2.374 5.911.25 7.358a3.89 3.89 0 0 0 2.49.82m-26.443.041c3.439 1.012 7.431-.872 8.627-4.287 1.88-3.563-.55-7.982-3.913-9.56-3.517-1.526-8.142.256-9.541 3.897-2.024 3.792.716 9.054 4.827 9.95m-63.466.672c3.033.764 6.525-1.212 7.26-4.303 1.29-3.768-2.071-8.13-6.043-7.758-3.615-.208-6.656 3.529-6.015 7.034.545 2.355 2.268 4.687 4.798 5.027m-24.772.672c3.486 1.094 6.925-2.703 5.454-6.121-1.067-3.974-7.779-3.829-8.738.14-.99 2.458.804 5.394 3.284 5.981M-72.98 56.72c3.267.472 6.616-2.008 6.8-5.383.736-4.232-4.084-7.895-8.012-6.393-3.334.935-4.93 5.038-3.597 8.137.977 1.797 2.616 3.584 4.809 3.64m16.282.418c2.298.775 4.875-1.241 4.87-3.592-.203-1.75-1.584-3.52-3.423-3.66-2.359-.26-4.725 2.253-3.935 4.61.382 1.161 1.334 2.213 2.488 2.642m-107.947 2.372c2.883.137 5.745-1.67 6.422-4.577 1.191-3.637-2.05-7.819-5.86-7.524-2.86-.208-5.537 2.108-5.974 4.886-.883 3.423 2.058 6.822 5.412 7.215m100.495 4.36c3.043 1.09 6.59-1.654 5.987-4.935-.05-3.457-4.514-5.46-7.244-3.486-3.21 1.903-2.588 7.668 1.257 8.422m-116.07-.03c2.698.928 5.68-.434 6.87-2.961 1.925-3.223-.499-7.716-4.109-8.253-3.629-.983-7.405 2.611-6.87 6.266.1 2.316 1.877 4.4 4.108 4.949m127.238 1.454c2.385.43 4.635-2.369 3.545-4.582-.836-2.622-4.907-2.896-6.048-.43-1.194 2.069.227 4.736 2.503 5.012m-51.56-.079c4.513 1.133 9.544-1.886 10.585-6.41 1.47-4.715-1.784-10.172-6.643-11.081-4.517-1.268-9.56 1.834-10.657 6.345-.7 3.117-.052 6.833 2.49 8.954 1.257.962 2.644 1.9 4.225 2.192m-21.719.335c3.357.661 7.01-.335 9.302-2.933 3.866-3.715 3.665-10.593-.292-14.198-3.874-3.913-11.102-3.63-14.56.704-3.58 3.84-3.183 10.643.857 14.026 1.394 1.065 2.899 2.18 4.693 2.401m-24.775 1.362c3.457.598 7.173-1.765 8.171-5.12 1.69-4.49-2.16-9.89-6.975-9.618-5.059-.535-9.096 5.513-7.064 10.1.872 2.546 3.336 4.143 5.868 4.638m65.5.335c4.18.659 8.58-2.97 8.277-7.286.382-3.871-3.18-7.647-7.075-7.439-3.694-.424-7.149 2.635-7.644 6.222-.654 3.957 2.46 8.06 6.442 8.503m28.138 5.5c2.116.379 4.195-1.526 4.256-3.626-.064-1.924-1.766-3.624-3.687-3.687-1.926.063-3.626 1.763-3.692 3.687.064 1.733 1.437 3.283 3.123 3.625m-15.241.989c3.7.943 7.639-2.546 7.29-6.322.035-4.045-4.745-7.12-8.46-5.415-2.327.796-3.624 3.173-3.98 5.473-.073 2.92 2.264 5.784 5.15 6.264m20.456-2.636c-.67 1.582.804 3.42 2.445 3.39.922-.085 1.887-.588 2.203-1.516.414-1.43-.588-2.735-1.028-4.018-1.162.545-3.185.6-3.62 2.144m-113.111 5.315c4.334.736 8.521-3.278 8.321-7.594-.363-2.743-2.06-5.489-4.74-6.461-4.006-1.934-9.141 1.12-9.882 5.373-.935 3.979 2.287 8.242 6.3 8.682m-16.98 3.429c4.137 1.243 8.98-2.27 8.643-6.649.269-3.82-3.341-7.112-7.06-7.106-3.182.305-6.057 2.719-6.653 5.894-.585 3.413 1.61 7.08 5.07 7.86m118.46 2.009c2.62.6 5.466-1.392 5.78-4.043.434-2.374-1.181-5.22-3.695-5.478-2.44-.772-5.33.87-5.813 3.384-.849 2.592.975 5.818 3.729 6.137m10.85.387c1.569.55 3.619 0 4.188-1.679.922-1.72-.2-4.09-2.087-4.51-2.153-.918-4.261 1.2-4.287 3.24.282 1.176.872 2.64 2.187 2.949m-92.985 3.341c4.164 1.141 8.81-1.323 10.343-5.299 1.57-3.594.319-8.034-2.65-10.522-3.131-2.295-7.666-2.65-10.836-.245-3.96 2.474-4.946 8.338-2.4 12.143 1.248 1.936 3.27 3.462 5.543 3.923m95.678 3.797c2.477.501 3.71-3.51 1.37-4.445-1.723-1.025-3.339.567-3.415 2.182.116 1.096.996 1.997 2.045 2.263m-8.435.63c3.16 1.508 6.73-2.19 5.165-5.162-.936-2.52-4.35-3.328-6.261-1.383-2.243 1.744-1.505 5.576 1.096 6.545m-103.873 6.09c2.411.43 5.03.037 6.96-1.55 2.321-1.42 3.349-4.231 3.683-6.809.019-4.042-2.961-8.105-7.051-8.77-3.805-1.027-7.9 1.173-9.697 4.549-1.18 2.53-1.102 5.615.047 8.137 1.223 2.269 3.518 3.982 6.058 4.443m-18.335 1.043c3.402.828 7.476-.835 8.633-4.3 1.802-3.528-.332-8.1-3.803-9.676-3.646-1.781-8.64.118-10.005 4.005-1.723 4.03.946 9.075 5.175 9.971m126.951.359c1.518.535 3.71.05 4.137-1.7 1.202-2.559-1.952-5.173-4.263-3.918-2.356.935-2.203 4.74.126 5.618m-1.202 5.926c.902 1.67 2.875.588 4.145.045-.527-.851-.147-2.714-1.415-3.125-1.75-.933-4.07 1.26-2.73 3.08m-79.258 2.511c4.664.377 9.563-2.9 10.383-7.618 1.594-5.128-2.08-10.996-7.25-12.113-3.715-1.083-7.915.374-10.295 3.378-2.912 3.528-3.017 9.204.024 12.693 1.678 2.216 4.406 3.452 7.138 3.66m-40.38 8.506c4.182 1.18 8.888-1.68 9.724-5.934 1.098-4.05-1.795-8.511-5.792-9.512-3.776-1.228-8.035 1.196-9.492 4.753-1.984 4.253 1.099 9.753 5.56 10.693m20.375 1.347c3.557.595 7.55-1.065 9.315-4.266 1.968-2.991 1.9-7.307-.327-10.143-1.478-2.366-4.206-3.591-6.878-3.987-5.135-.455-10.179 4.148-9.765 9.4-.35 4.371 3.357 8.53 7.655 8.996" style="fill:#1f419a;fill-opacity:1;fill-rule:nonzero;stroke:none;stroke-width:2.63509" transform="matrix(1.33333 0 0 -1.33333 384.106 387.408)"/><path d="M0 0c.95.284 1.972.371 2.945.16.002-7.048.006-14.097-.001-21.145.041-.767-.211-1.669-.99-1.988-1.142-.518-2.448-.437-3.67-.395-.001 6.847.002 13.696-.001 20.543-.015.762.132 1.604.696 2.164C-.748-.354-.386-.137 0 0" style="fill:#0d3295;fill-opacity:1;fill-rule:nonzero;stroke:none" transform="matrix(3.28145 0 0 -3.276 101.947 59.064)"/><path d="M0 0c2.064.219 4.147.145 6.212-.026.693-.04 1.386-.107 2.069-.235.153-.841.175-1.738-.14-2.545-.262-.689-.855-1.285-1.613-1.372-1.134-.172-2.278.025-3.416.057-1.092.017-2.229.198-3.279-.195-.278-.156-.628-.309-.738-.634-.211-.582.424-.988.911-1.082 1.691-.44 3.44-.608 5.135-1.031 1.175-.295 2.307-.875 3.122-1.787.707-.774 1.087-1.81 1.118-2.853.178-1.708-.577-3.533-2.036-4.482-1.333-.948-3.006-1.223-4.606-1.295-2.574-.174-5.149.084-7.711.321-.164.904-.194 1.866.186 2.722.291.718.989 1.266 1.766 1.335 1.902.157 3.794-.239 5.697-.156.548.025 1.16.02 1.612.383.435.213.551.828.293 1.217-.357.397-.89.536-1.386.669-1.483.316-2.986.538-4.465.877-1.704.38-3.352 1.506-3.963 3.191-.736 1.9-.093 4.221 1.504 5.479C-2.671-.589-1.338-.145 0 0" style="fill:#0d3295;fill-opacity:1;fill-rule:nonzero;stroke:none" transform="matrix(3.28145 0 0 -3.276 60.395 78.27)"/><path d="M0 0c1.078.284 2.224.344 3.317.106.205-.066.486-.052.631-.244.307-.412.541-.871.809-1.308 1.289-2.073 2.554-4.161 3.84-6.235.406-.67.803-1.346 1.253-1.988.967 2.182 1.87 4.393 2.808 6.588.397 1.001.89 2.047 1.828 2.648.723.515 1.661.582 2.52.538a4.82 4.82 0 0 0 1.671-.41c-.762-1.798-1.601-3.561-2.387-5.348-2.176-4.869-4.371-9.73-6.546-14.599-.236-.509-.446-1.031-.715-1.523-.374-.662-.963-1.244-1.704-1.469-1.211-.306-2.513-.177-3.666.293 1.326 2.786 2.622 5.588 3.988 8.355-2.16 3.411-4.34 6.808-6.504 10.217-1.265-1.202-2.398-2.533-3.627-3.768-.113-.118-.237-.231-.314-.377.024-.262.239-.455.359-.677 1.316-1.906 2.569-3.855 3.863-5.777.45-.672.907-1.34 1.324-2.034-.934-.366-1.94-.511-2.938-.507-1.164.057-2.362.494-3.119 1.415-.599.786-1.094 1.644-1.633 2.472-1.164 1.812-2.301 3.642-3.472 5.449 1.855 2.08 3.763 4.113 5.635 6.177C-2.018-1.148-1.115-.348 0 0" style="fill:#0d3295;fill-opacity:1;fill-rule:nonzero;stroke:none" transform="matrix(3.28145 0 0 -3.276 140.002 78.533)"/><path d="M0 0c.922.077 1.848.029 2.771.037 17.619 0 35.238-.002 52.856.002.956.099 1.945-.483 2.28-1.389.275-.729.189-1.52.211-2.282-.028-3.068.042-6.136-.049-9.203.091-2.341.024-4.684.045-7.026 0-3.628-.003-7.255.004-10.883.011-.608-.086-1.238-.426-1.755-.376-.533-.983-.905-1.639-.954-.722-.058-1.446-.025-2.168-.028-17.826.008-35.652-.007-53.478.007-.926-.013-1.795.631-2.105 1.493-.14.482-.135.989-.138 1.486.023 9.431-.014 18.862.018 28.292C-1.845-1.158-1.028-.167 0 0" style="fill:#fa1616;fill-opacity:1;fill-rule:nonzero;stroke:none" transform="matrix(3.28145 0 0 -3.276 223.728 51.943)"/><path d="M0 0c.686.288 1.448.15 2.156.042.053-2.609-.004-5.22.031-7.83.733.846 1.608 1.58 2.644 2.026 2.361 1.012 5.237.652 7.284-.899 1.535-1.12 2.589-2.858 2.925-4.724.405-2.055.209-4.264-.739-6.148a7.384 7.384 0 0 0-3.725-3.491c-2.152-.899-4.749-.788-6.719.509-.647.415-1.164.993-1.674 1.559 0-.542.012-1.085-.007-1.627-.013-.365-.31-.688-.659-.771-.662-.167-1.35-.09-2.012.024-.012 2.593.011 5.184-.009 7.777a80.944 80.944 0 0 0-.045 4.726c.107 2.631.028 5.266.049 7.899-.041.369.117.808.5.928" style="fill:#fefefe;fill-opacity:1;fill-rule:nonzero;stroke:none" transform="matrix(3.28145 0 0 -3.276 243.024 63.44)"/><path d="M0 0a5.107 5.107 0 0 1-2.388-.777c-.867-.532-1.656-1.286-2.033-2.246-.063-1.57 0-3.144-.027-4.716.034-.395-.059-.847.172-1.199 1.066-1.768 3.174-2.87 5.242-2.646 2.211.098 4.18 1.828 4.666 3.969.474 1.575.258 3.314-.435 4.79C4.286-.914 2.101.271 0 0" style="fill:#fefefe;fill-opacity:1;fill-rule:nonzero;stroke:none" transform="matrix(3.28145 0 0 -3.276 264.744 88.398)"/><path d="M0 0c.684.491 1.591.316 2.364.173.001-1.13-.007-2.26.015-3.39 2.05-.046 4.1-.007 6.149-.021.066-.654.272-1.377-.069-1.987-.251-.506-.898-.411-1.365-.442-1.556 0-3.111.01-4.665.004.036-2.9-.13-5.798-.051-8.697.063-.676.161-1.433.684-1.924.475-.49 1.186-.668 1.853-.639.811-.064 1.594.183 2.346.455.447.14.942.336 1.408.132.647-.337.634-1.186.583-1.81-.37-.295-.834-.427-1.27-.594-1.118-.404-2.309-.559-3.493-.582-1.341.04-2.738.467-3.659 1.489-.529.644-.919 1.418-1.042 2.248-.097.565-.093 1.143-.099 1.715.004 4.145.008 8.291-.002 12.437C-.282-.954-.397-.366 0 0" style="fill:#fefefe;fill-opacity:1;fill-rule:nonzero;stroke:none" transform="matrix(3.28145 0 0 -3.276 362.585 70.959)"/><path d="M0 0c2.004.612 4.277.473 6.121-.559C8.352-1.825 9.646-4.417 9.63-6.942c.004-.621.009-1.246-.063-1.865-4.082-.017-8.164.027-12.246-.021.126-.836.33-1.688.804-2.401.577-.961 1.521-1.675 2.583-2.019 1.854-.615 3.871-.35 5.679.29.55.161 1.27.52 1.79.089.563-.436.469-1.222.528-1.849-1.768-.815-3.696-1.25-5.638-1.338-2.219-.076-4.535.619-6.147 2.192-1.385 1.298-2.124 3.157-2.309 5.021-.068 1.09-.105 2.211.214 3.268C-4.574-2.989-2.537-.787 0 0" style="fill:#fefefe;fill-opacity:1;fill-rule:nonzero;stroke:none" transform="matrix(3.28145 0 0 -3.276 319.183 81.635)"/><path d="M0 0a4.911 4.911 0 0 1-2.534-2.258c-.393-.669-.536-1.441-.745-2.178 3.24-.004 6.479-.006 9.718.001-.118.853-.247 1.733-.702 2.482C5.216-.916 4.221-.174 3.122.153 2.1.413.993.353 0 0" style="fill:#fefefe;fill-opacity:1;fill-rule:nonzero;stroke:none" transform="matrix(3.28145 0 0 -3.276 321.106 89.024)"/><path d="M0 0c-.383-.12-.541-.559-.5-.928-.021-2.633.058-5.268-.049-7.899a80.944 80.944 0 0 1 .045-4.726c.02-2.593-.003-5.184.009-7.777.662-.114 1.35-.191 2.012-.024.349.083.646.406.659.771.019.542.007 1.085.007 1.627.51-.566 1.027-1.144 1.674-1.559 1.97-1.297 4.567-1.408 6.719-.509a7.384 7.384 0 0 1 3.725 3.491c.948 1.884 1.144 4.093.739 6.148-.336 1.866-1.39 3.604-2.925 4.724-2.047 1.551-4.923 1.911-7.284.899-1.036-.446-1.911-1.18-2.644-2.026-.035 2.61.022 5.221-.031 7.83C1.448.15.686.288 0 0" style="fill:#fff;fill-opacity:1;fill-rule:nonzero;stroke:none" transform="matrix(3.28145 0 0 -3.276 243.024 63.44)"/><path d="M0 0c-.397-.366-.282-.954-.313-1.433.01-4.146.006-8.292.002-12.437.006-.572.002-1.15.099-1.715.123-.83.513-1.604 1.042-2.248.921-1.022 2.318-1.449 3.659-1.489 1.184.023 2.375.178 3.493.582.436.167.9.299 1.27.594.051.624.064 1.473-.583 1.81-.466.204-.961.008-1.408-.132-.752-.272-1.535-.519-2.346-.455-.667-.029-1.378.149-1.853.639-.523.491-.621 1.248-.684 1.924-.079 2.899.087 5.797.051 8.697 1.554.006 3.109-.004 4.665-.004.467.031 1.114-.064 1.365.442.341.61.135 1.333.069 1.987-2.049.014-4.099-.025-6.149.021-.022 1.13-.014 2.26-.015 3.39C1.591.316.684.491 0 0" style="fill:#fff;fill-opacity:1;fill-rule:nonzero;stroke:none" transform="matrix(3.28145 0 0 -3.276 362.585 70.959)"/><path d="M0 0c-2.537-.787-4.574-2.989-5.175-5.575-.319-1.057-.282-2.178-.214-3.268.185-1.864.924-3.723 2.309-5.021 1.612-1.573 3.928-2.268 6.147-2.192 1.942.088 3.87.523 5.638 1.338-.059.627.035 1.413-.528 1.849-.52.431-1.24.072-1.79-.089-1.808-.64-3.825-.905-5.679-.29-1.062.344-2.006 1.058-2.583 2.019-.474.713-.678 1.565-.804 2.401 4.082.048 8.164.004 12.246.021.072.619.067 1.244.063 1.865.016 2.525-1.278 5.117-3.509 6.383C4.277.473 2.004.612 0 0" style="fill:#fff;fill-opacity:1;fill-rule:nonzero;stroke:none" transform="matrix(3.28145 0 0 -3.276 319.183 81.635)"/><path d="M0 0c.993.353 2.1.413 3.122.153C4.221-.174 5.216-.916 5.737-1.953c.455-.749.584-1.629.702-2.482a2861.78 2861.78 0 0 0-9.718-.001c.209.737.352 1.509.745 2.178A4.911 4.911 0 0 0 0 0" style="fill:#fa1616;fill-opacity:1;fill-rule:nonzero;stroke:none" transform="matrix(3.28145 0 0 -3.276 321.106 89.024)"/><path d="M0 0c2.101.271 4.286-.914 5.197-2.825.693-1.476.909-3.215.435-4.79-.486-2.141-2.455-3.871-4.666-3.969-2.068-.224-4.176.878-5.242 2.646-.231.352-.138.804-.172 1.199.027 1.572-.036 3.146.027 4.716.377.96 1.166 1.714 2.033 2.246A5.107 5.107 0 0 0 0 0" style="fill:#fa1616;fill-opacity:1;fill-rule:nonzero;stroke:none" transform="matrix(3.28145 0 0 -3.276 264.744 88.398)"/><path d="M-61.012-58.291v12.126h-16.37v40.47H-90.51V-50.17c0-4.495 3.646-8.122 8.162-8.122zm-110.51 8.122c0-4.495 3.66-8.122 8.162-8.122h23.645v12.126h-18.663v8.18h17.152v12.243h-17.152v7.848h18.75v12.198h-31.894zm48.96-8.122c-4.504 0-8.149 3.627-8.149 8.122v44.473h32.038v-12.199h-18.894v-7.848h17.152v-12.242h-17.152V-58.29Z" style="clip-rule:evenodd;fill:#c1181f;fill-opacity:1;fill-rule:nonzero;stroke:#c1181f;stroke-width:.75;stroke-miterlimit:4;stroke-dasharray:none;stroke-opacity:1;image-rendering:optimizeQuality;shape-rendering:geometricPrecision;text-rendering:geometricPrecision" transform="matrix(1.33333 0 0 -1.33333 384.106 387.408)"/></svg>